<svg width="57" height="62" viewBox="0 0 57 62" fill="none" xmlns="http://www.w3.org/2000/svg">
<path d="M14.1736 57.2756C21.9978 52.7903 29.7269 48.3693 37.4499 43.9379C38.1215 43.5525 38.8079 43.1622 39.3935 42.665C41.9288 40.5129 41.6693 36.9031 38.7752 35.2422C30.6929 30.6039 22.8352 25.5812 14.5615 21.2705C14.1491 21.0556 13.7397 20.8238 13.3646 20.5514C12.204 19.7082 11.7773 18.2603 12.3095 16.9877C12.8824 15.6176 14.0062 15.017 15.4137 15.1542C17.3184 15.3398 19.2096 15.675 21.1 15.9853C22.2492 16.174 23.1009 18.3184 22.7007 20.1338C22.4067 21.4674 22.5957 22.598 23.7542 23.4251C25.0923 24.3805 26.5965 24.1795 27.6402 22.9484C28.6603 21.7451 28.6247 20.1446 27.4384 19.0664C26.7125 18.4066 26.11 17.781 26.3771 16.6107C31.8511 16.6107 37.3222 16.6107 42.8406 16.6107C43.2268 17.8125 42.3605 18.3975 41.7117 19.0949C40.5989 20.2911 40.5839 22.0088 41.6506 23.1324C42.7259 24.265 44.4503 24.3553 45.7443 23.3702C46.4138 22.8605 46.8202 22.2064 46.7035 21.3784C46.5206 20.0805 46.7813 18.8397 46.9416 17.5677C47.0736 16.5206 47.4344 15.9972 48.5144 15.8664C50.4155 15.6362 52.2996 15.2677 54.2005 15.0361C56.2338 14.7883 57.2391 15.8291 56.7183 17.7701C55.5011 22.3058 54.8126 26.9219 54.1896 31.5665C53.4289 37.2378 53.7385 42.8657 54.4434 48.4959C54.8721 51.9199 55.512 55.3261 56.7156 58.5604C57.5783 60.8786 56.445 62.4426 53.7705 61.8306C51.4969 61.3104 49.2099 60.8897 46.8987 60.5699C39.727 59.5773 32.5442 59.4832 25.3418 60.1828C22.1412 60.4936 18.9753 60.9978 15.8293 61.6518C14.5443 61.919 13.1027 62.5522 12.2472 60.9316C11.5876 59.6823 12.2544 58.485 14.1736 57.2756Z" fill="#004745"/>
<path d="M19.2549 31.7089C18.895 30.6263 18.564 29.6671 18.2522 28.7013C17.9823 27.8655 17.7506 26.977 18.5524 26.3372C19.3189 25.7255 20.1107 26.0478 20.867 26.5009C24.7671 28.8373 28.6733 31.1627 32.5763 33.4939C34.1017 34.405 35.6339 35.3046 37.1458 36.2392C39.5266 37.711 39.6543 40.1181 37.2989 41.5673C31.7344 44.9909 26.103 48.2981 20.4982 51.6516C19.8175 52.0589 19.1266 52.1927 18.4897 51.59C17.8584 50.9926 17.9405 50.2261 18.1804 49.4964C19.1646 46.5026 20.1492 43.5083 21.1946 40.5371C21.5485 39.5313 21.6296 38.6299 21.2381 37.5977C20.5196 35.7034 19.9335 33.7552 19.2549 31.7089Z" fill="black"/>
<path d="M28.8912 4.92293C25.1236 8.28919 25.3054 13.8913 26.4805 17.8058C26.6213 18.2751 27.0685 18.4757 27.3995 18.7832C28.3806 19.6944 28.6062 20.791 27.8601 21.9005C27.1631 22.9368 26.1205 23.3081 24.9182 22.7217C23.6939 22.1245 23.2158 21.1145 23.6926 19.8467C23.9507 19.1606 23.7692 18.5892 23.6374 17.9518C22.6544 13.1999 22.4455 8.50191 25.7057 4.42976C28.7403 0.639471 32.8764 -0.691703 37.6141 0.33346C42.6098 1.41446 45.5239 4.69003 46.6471 9.53802C47.2136 11.9832 47.0365 14.4323 46.5499 16.862C46.3142 18.0382 46.0178 19.1518 46.2973 20.4036C46.5589 21.5748 45.7814 22.4187 44.6722 22.8307C43.6369 23.2152 42.7423 22.868 42.0887 22.0292C41.3863 21.1276 41.2167 19.9557 42.1014 19.2865C44.2613 17.6527 44.1887 15.2821 44.2434 13.1319C44.3698 8.15601 42.2429 4.29532 37.3255 3.0305C34.2721 2.24515 31.4439 2.86096 28.8912 4.92293Z" fill="#004745"/>
<path d="M13.856 46.8851C13.1693 47.7289 12.3003 48.01 11.2083 47.9997C8.46111 47.9739 5.71324 48.0027 2.96593 47.9829C1.16661 47.97 -0.00385599 47.168 9.54551e-06 46.0088C0.00376815 44.8806 1.06139 44.0767 2.81673 44.0459C5.66828 43.9958 8.52487 43.9709 11.3741 44.0552C13.6133 44.1213 14.3431 44.9955 13.856 46.8851Z" fill="#004745"/>
<path d="M7.64414 41.9902C6.91577 41.9704 6.31182 42.0432 5.74668 41.9113C4.60003 41.6436 3.96211 40.8151 4.00174 39.4794C4.0413 38.1465 4.68494 37.3693 5.88807 37.2202C8.96607 36.8389 12.048 37.027 15.124 37.2297C16.343 37.31 16.9115 38.3064 16.9951 39.5537C17.0806 40.8294 16.0428 41.9275 14.687 41.9645C12.3879 42.0273 10.0865 41.987 7.64414 41.9902Z" fill="#004745"/>
<path d="M4.31527 30.0063C7.03692 30.0069 9.60706 29.9888 12.1769 30.0113C13.925 30.0267 14.9875 30.9746 14.9999 32.4557C15.0121 33.9133 13.8976 34.9642 12.2302 34.9818C9.55558 35.0101 6.88051 34.9985 4.20564 34.9922C1.96299 34.987 1.01416 34.2442 1.00017 32.5094C0.985985 30.75 1.87202 30.0486 4.31527 30.0063Z" fill="#004745"/>
</svg>
